# xmcd
#
# Track frame offsets:
#	150
#	15771
#	29132
#	40348
#	58043
#	73666
#	89235
#	100175
#	117632
#	134044
#	152403
#	164691
#
# Disc length: 2362 seconds
#
# Revision: 1
# Processed by: cddbd v1.5.2PL0 Copyright (c) Steve Scherf et al.
# Submitted via: audiograbber 1.81.02
#
DISCID=ad09380c
DTITLE=Unknown - A BlueGrass Tribute - Pickin' On Tracy Byrd
DYEAR=2005
DGENRE=Bluegrass
TTITLE0=Ten Rounds With Jose Cuervo
TTITLE1=Watermelon Crawl
TTITLE2=Holdin' Heaven
TTITLE3=Put Your Hand In Mine
TTITLE4=Big Love
TTITLE5=(Don't Take Her) She's All I Got
TTITLE6=Drinkin' Bone
TTITLE7=The Keeper Of The Stars
TTITLE8=I'm From The Country
TTITLE9=Just Let Me Be In Love
TTITLE10=Lifestyles Of The Not So Rich And Famous
TTITLE11=T-Byrd Breakdown (original composition)
EXTD=
EXTT0=
EXTT1=
EXTT2=
EXTT3=
EXTT4=
EXTT5=
EXTT6=
EXTT7=
EXTT8=
EXTT9=
EXTT10=
EXTT11=
PLAYORDER=
